<!DOCTYPE svg PUBLIC "-//W3C//DTD SVG 1.1//EN" "http://www.w3.org/Graphics/SVG/1.1/DTD/svg11.dtd">
<!-- Uploaded to: SVG Repo, www.svgrepo.com, Transformed by: SVG Repo Mixer Tools -->
<svg height="800px" width="800px" version="1.1" id="Layer_1" xmlns="http://www.w3.org/2000/svg" xmlns:xlink="http://www.w3.org/1999/xlink" viewBox="0 0 511.838 511.838" xml:space="preserve" fill="#000000" transform="matrix(1, 0, 0, 1, 0, 0)">
<g id="SVGRepo_bgCarrier" stroke-width="0"/>
<g id="SVGRepo_tracerCarrier" stroke-linecap="round" stroke-linejoin="round"/>
<g id="SVGRepo_iconCarrier"> <g transform="translate(1 1)"> <path style="fill:#ffffff;" d="M464.839,459.638H44.999c-6.827,0-11.947-5.12-11.947-11.947v-95.573 c0-6.827,5.12-11.947,11.947-11.947h419.84c6.827,0,11.947,5.12,11.947,11.947v95.573 C476.785,454.518,471.665,459.638,464.839,459.638L464.839,459.638z"/> <path style="fill:#000000;" d="M464.839,468.171H44.999c-11.093,0-20.48-9.387-20.48-20.48v-95.573 c0-11.093,9.387-20.48,20.48-20.48h419.84c11.093,0,20.48,9.387,20.48,20.48v95.573 C485.319,458.784,475.932,468.171,464.839,468.171z M44.999,348.704c-1.707,0-3.413,1.707-3.413,3.413v95.573 c0,1.707,1.707,3.413,3.413,3.413h419.84c1.707,0,3.413-1.707,3.413-3.413v-95.573c0-1.707-1.707-3.413-3.413-3.413H44.999z"/> <path style="fill:#85ccff;" d="M408.519,502.304h-307.2c-23.893,0-42.667-18.773-42.667-42.667h392.533 C451.185,483.531,432.412,502.304,408.519,502.304L408.519,502.304z"/> <path style="fill:#000000;" d="M408.519,510.838h-307.2c-28.16,0-51.2-23.04-51.2-51.2v-8.533h409.6v8.533 C459.719,487.798,436.679,510.838,408.519,510.838z M68.039,468.171c3.413,14.507,17.067,25.6,33.28,25.6h307.2 c16.213,0,29.013-11.093,33.28-25.6H68.039z"/> <polygon style="fill:#ffffff;" points="186.652,288.971 323.185,288.971 323.185,340.171 186.652,340.171 "/> <path style="fill:#000000;" d="M331.719,348.704h-153.6v-68.267h153.6V348.704z M195.185,331.638h119.467v-34.133H195.185V331.638z "/> <path style="fill:#ffffff;" d="M348.785,101.238c0-55.467-47.787-99.84-104.96-93.013c-41.813,5.12-75.947,38.4-81.92,80.213 c-5.12,34.987,9.387,66.56,34.133,86.187c16.213,12.8,24.747,33.28,24.747,54.613v59.733h68.267v-61.44 c0-20.48,8.533-40.107,23.893-52.907C335.132,157.558,348.785,131.104,348.785,101.238L348.785,101.238z"/> <path style="fill:#000000;" d="M297.585,297.504h-85.333v-69.12c0-18.773-7.68-36.693-21.333-47.787 c-28.16-23.04-41.813-58.027-37.547-93.867c5.973-45.227,43.52-81.92,89.6-87.04c29.013-3.413,58.027,5.973,80.213,24.747 c21.333,19.627,34.133,46.933,34.133,76.8c0,31.573-14.507,60.587-38.4,80.213c-12.8,10.24-21.333,27.307-21.333,46.08V297.504z M229.319,280.438h51.2v-52.907c0-23.04,10.24-45.227,27.307-58.88c20.48-16.213,32.427-40.96,32.427-66.56 c0-23.893-10.24-47.787-28.16-64c-18.773-16.213-41.813-23.893-66.56-21.333c-38.4,4.267-69.12,34.987-74.24,72.533 c-4.267,29.867,7.68,59.733,30.72,78.507c17.92,14.507,28.16,36.693,28.16,61.44v51.2H229.319z"/> </g> </g>
</svg>