<svg xmlns="http://www.w3.org/2000/svg" width="64" height="64"><path d="M30 35a11 11 0 1 0 11 11 11.013 11.013 0 0 0-11-11zm5.9 5.447-6 12a1 1 0 0 1-1.763.049l-4-7a1 1 0 0 1 1.736-.992l3.073 5.377L34.1 39.553a1 1 0 0 1 1.79.894z" style="fill:#c4a2fc"/><path d="M53 46c2.7 0 3.184 4 8 4a2 2 0 0 0 0-4c-2.695 0-3.184-4-8-4-3.32 0-4.758 2.032-6.039 3.187a16.953 16.953 0 0 0-.5-3.35C50.073 41.068 50.587 38 53 38c2.7 0 3.184 4 8 4a2 2 0 0 0 0-4c-2.695 0-3.184-4-8-4-4.756 0-5.364 4-8 4a17.023 17.023 0 1 0-2.528 19.522A6.549 6.549 0 0 0 45 58c4.757 0 5.364-4 8-4 2.7 0 3.184 4 8 4a2 2 0 0 0 0-4c-2.695 0-3.184-4-8-4-4.756 0-5.364 4-8 4a16.888 16.888 0 0 0 1.56-4.182C50.012 49.03 50.675 46 53 46zM30 59a13 13 0 1 1 13-13 13.015 13.015 0 0 1-13 13z" style="fill:#c4a2fc"/><path d="m50.93 43.63-4-10A1 1 0 0 0 46 33H34.05a8.944 8.944 0 0 0-.243-8.478 4.711 4.711 0 0 1 .532-5.348 10.909 10.909 0 0 0 2.586-8.454A11 11 0 1 0 17.6 19.1a5.048 5.048 0 0 1 .476 5.659 8.993 8.993 0 0 0-1 5.4A8.631 8.631 0 0 0 17.96 33H6a1 1 0 0 0-.929.629l-4 10A1 1 0 0 0 2 45h2v3a3 3 0 0 0 3 3h38a3 3 0 0 0 3-3v-3h2a1 1 0 0 0 .93-1.37zM19.054 29.913a7.006 7.006 0 0 1 .779-4.209 7.038 7.038 0 0 0-.708-7.9 9 9 0 1 1 13.7.062 6.741 6.741 0 0 0-.75 7.65A7.014 7.014 0 0 1 33 29a6.9 6.9 0 0 1-1.287 4H20.286a6.732 6.732 0 0 1-1.232-3.087zM46 48a1 1 0 0 1-1 1H7a1 1 0 0 1-1-1v-3h40zM3.478 43l3.2-8h38.646l3.2 8z" style="fill:#ffffff"/><path d="M26 5a5 5 0 1 0 5 5 5.006 5.006 0 0 0-5-5zm0 8a3 3 0 1 1 3-3 3 3 0 0 1-3 3z" style="fill:#ffffff"/></svg>